<?xml version="1.0" ?><!DOCTYPE svg  PUBLIC '-//W3C//DTD SVG 1.1//EN'  'http://www.w3.org/Graphics/SVG/1.1/DTD/svg11.dtd'><svg enable-background="new 0 0 48 48" height="48px" version="1.1" viewBox="0 0 48 48" width="48px" xml:space="preserve" xmlns="http://www.w3.org/2000/svg" xmlns:xlink="http://www.w3.org/1999/xlink"><g id="Layer_3"><g><path d="M9.259,28.439c-4.842,3.424-7.572,7.758-7.572,7.758s2.855,4.21,7.749,7.581    c3.148-1.126,5.413-4.104,5.413-7.641C14.849,32.534,12.498,29.515,9.259,28.439z M7.908,36.11c-1.028,0-1.863-0.835-1.863-1.861    c0-1.03,0.834-1.864,1.863-1.864c1.029,0,1.863,0.834,1.863,1.864C9.771,35.275,8.938,36.11,7.908,36.11z" fill="#241F20"/><path d="M13.445,26.054c3.247,2.179,5.385,5.879,5.385,10.084c0,4.144-2.08,7.797-5.25,9.984    c7.018,3.118,16.652,3.155,27.544-8.298l5.188,3.899V30.549l-5.285,3.976C29.827,23.133,20.308,23.025,13.445,26.054z" fill="#241F20"/><path d="M43.103,0.096v5.368v1.229v7.2v1.204v0.501c0,2.661-2.158,4.816-4.816,4.816    c-2.583,0-4.672-2.036-4.794-4.591h-0.016V15.66c0-0.021-0.007-0.042-0.007-0.062h3.226l-6.409-8.027v7.728h0.003    c-0.017,0.099-0.03,0.198-0.03,0.299c0,4.433,3.595,8.027,8.027,8.027s8.026-3.594,8.026-8.027V6.693V5.464V0.096H43.103z" fill="#241F20"/></g></g></svg>