<svg xmlns="http://www.w3.org/2000/svg" viewBox="0 0 248 108" width="248" height="108">
	<style>
		tspan { white-space:pre }
		.shp0 { fill: none;stroke: #000000;stroke-linecap:round;stroke-linejoin:round;stroke-width: 8 } 
		.shp1 { fill: #000000 } 
	</style>
	<g id="Layer">
		<path id="Layer" class="shp0" d="M102.73 23.92L96 12.77C96 12.77 153.21 -4.47 182.42 9.39C193.37 14.59 197.97 19.63 199.43 23.9" />
		<path id="Layer" class="shp0" d="M46.17 61.61C57.07 69.52 106.93 104 148 104C194.39 104 244 82.09 244 60C244 37.91 194.39 16 148 16C108.1 16 59.91 48.55 47.2 57.66" />
		<path id="Layer" class="shp1" d="M208 60C203.58 60 200 56.42 200 52C200 47.58 203.58 44 208 44C212.42 44 216 47.58 216 52C216 56.42 212.42 60 208 60Z" />
		<path id="Layer" class="shp0" d="M48 58.18C48 58.18 -15.09 17 15.2 58.59C15.2 58.59 -8.59 70.05 13.17 78.46C34.94 86.87 48 58.18 48 58.18Z" />
		<path id="Layer" class="shp0" d="M143.55 72C143.55 72 143.53 83.94 120 87.48C120 87.48 151.98 91.95 168 74.76" />
	</g>
	<g id="Layer">
	</g>
	<g id="Layer">
	</g>
	<g id="Layer">
	</g>
	<g id="Layer">
	</g>
	<g id="Layer">
	</g>
	<g id="Layer">
	</g>
	<g id="Layer">
	</g>
	<g id="Layer">
	</g>
	<g id="Layer">
	</g>
	<g id="Layer">
	</g>
	<g id="Layer">
	</g>
	<g id="Layer">
	</g>
	<g id="Layer">
	</g>
	<g id="Layer">
	</g>
	<g id="Layer">
	</g>
</svg>